<?xml version="1.0" encoding="UTF-8"?>
<svg id="Layer_12" data-name="Layer 12" xmlns="http://www.w3.org/2000/svg" viewBox="0 0 841 811">
  <path d="M356.56,530.42c-7.62-6.66-14.16-14.53-19.27-23.34l-29.55,15.86s0,.01,0,.04c1.16,6.19,2.65,11.71,4.54,15.22,9.16,16.97,27.18,22,44.97,22.25-1.85-9.91-2.09-20.06-.69-30.03Z"/>
  <path d="M305.25,542.04c-1.44-2.66-2.64-6.49-3.64-10.89l-124.76,58.71,73.48-11.74,64.99-24.09c-3.96-3.1-7.4-7.03-10.07-11.99Z"/>
  <path d="M380.66,643.17c-3.15-1.22-7.94-1.75-14.71.82s-10.01,6.14-11.55,9.15c-1.08,2.1-.82,5.06.55,7.46,9.42,16.46,51.34,89.67,51.34,89.67,0,0-17.23-82.59-21.1-101.15-.57-2.71-2.34-5.1-4.54-5.95Z"/>
  <path d="M358.52,567.61c-13.72-.39-27.25-3.26-38.22-10.66,9.56,12.4,24.67,16.33,39.87,16.47-.61-1.91-1.16-3.85-1.65-5.82Z"/>
  <path d="M382.87,637.94c2.01.78,3.74,2.58,4.83,4.8-.1-.92-2.78-26.57-5.74-34.7,0,0-1.97-6.05-4.69-10.05-4.58-6.74-13.77-10.2-21.82-8.88-1.75.29-4.56,1.42-5.08,1.62l-4.06,1.54-4.06,1.54c-.52.2-3.37,1.21-4.88,2.16-6.89,4.35-11.47,13.04-10.43,21.12.62,4.79,3.17,10.63,3.17,10.63,3.18,8.04,18.2,29.01,18.73,29.76-.66-2.39-.56-4.87.42-6.79,1.97-3.84,6.12-8.41,14.78-11.7,8.66-3.29,14.79-2.62,18.82-1.05Z"/>
  <path d="M367,536.7c-.28,2.7-.43,5.43-.43,8.2,0,16.19,4.96,31.24,13.44,43.71.96.98,1.84,2.03,2.61,3.16,3.44,5.07,5.94,12.74,5.94,12.74,2.67,7.34,5.17,25.96,6.42,36.48.22-.05.4-.19.5-.4,1.08-2.25,7.09-11.99,30.35-11.99s29.27,9.74,30.35,11.99c.1.21.29.35.5.4,1.26-10.52,3.76-29.14,6.42-36.48,0,0,2.5-7.68,5.94-12.74.77-1.13,1.65-2.18,2.61-3.16,8.48-12.48,13.44-27.52,13.44-43.71,0-2.77-.15-5.51-.43-8.2-15.97,13.29-36.48,21.32-58.84,21.32-22.36,0-42.86-8.03-58.84-21.32Z"/>
  <polygon points="279.98 416.12 207.72 309.86 141.79 270.19 213.15 380.39 279.98 416.12"/>
  <path d="M215.26,301.71l85.7,124.07c3.74-23.6,14.03-45.04,28.95-62.41l-81.36-117.79L60.03,134.87l72.18,116.87,21.73,13.08,61.32,36.9Z"/>
  <path d="M361.12,456.94c-.61-3.59-.95-7.28-.95-11.05,0-2.3.12-4.57.35-6.82h-66.63l.14-.05h-.1s-82.63-43.97-82.63-43.97l-48.46,82.67,77.36,61.89,120.92-82.68Z"/>
  <polygon points="425.84 222.5 506.82 364.75 569.45 274.08 425.84 29.09 282.22 274.08 344.86 364.75 425.84 222.5"/>
  <path d="M425.84,353.42c-45.25.02-82.99,32.79-90.74,75.84h27.63c7.29-28.05,32.82-48.83,63.11-48.84,30.3.02,55.83,20.79,63.11,48.84h27.63c-7.76-43.06-45.49-75.83-90.74-75.84Z"/>
  <path d="M511.22,480.41l-23.02-15.74c-8.15,26.72-33.02,46.22-62.37,46.23-29.35-.02-54.22-19.51-62.37-46.23l-23.02,15.74c13.75,33.67,46.83,57.48,85.39,57.49,38.56-.02,71.64-23.82,85.39-57.49Z"/>
  <path d="M450.56,640.6c-4.41-3.01-11.98-5.94-24.72-5.94s-20.31,2.92-24.72,5.94c-3.08,2.1-4.51,5.91-3.75,9.57,5.22,24.99,28.47,136.14,28.47,136.14,0,0,23.25-111.15,28.47-136.14.76-3.65-.67-7.46-3.75-9.57Z"/>
  <path d="M543.94,522.98s0-.04,0-.04l-29.55-15.86c-5.11,8.81-11.64,16.68-19.27,23.34,1.4,9.97,1.17,20.12-.69,30.03,17.79-.25,35.81-5.27,44.97-22.25,1.89-3.51,3.38-9.03,4.54-15.22Z"/>
  <path d="M546.43,542.04c-2.68,4.96-6.11,8.89-10.07,11.99l64.99,24.09,73.48,11.74-124.76-58.71c-1,4.4-2.21,8.23-3.64,10.89Z"/>
  <path d="M485.73,644c-6.77-2.57-11.56-2.05-14.71-.82-2.2.85-3.97,3.24-4.54,5.95-3.87,18.57-21.1,101.15-21.1,101.15,0,0,41.92-73.21,51.34-89.67,1.38-2.41,1.63-5.37.55-7.46-1.54-3-4.78-6.58-11.55-9.15Z"/>
  <path d="M491.5,573.43c15.2-.14,30.32-4.08,39.87-16.47-10.97,7.4-24.51,10.27-38.22,10.66-.49,1.96-1.04,3.9-1.65,5.82Z"/>
  <path d="M514.3,595.98c-1.5-.95-4.35-1.96-4.88-2.16l-4.06-1.54-4.06-1.54c-.52-.2-3.33-1.33-5.08-1.62-8.04-1.32-17.24,2.14-21.82,8.88-2.72,4-4.69,10.05-4.69,10.05-2.95,8.12-5.64,33.78-5.74,34.7,1.09-2.23,2.81-4.02,4.83-4.8,4.02-1.56,10.16-2.23,18.82,1.05,8.66,3.29,12.8,7.86,14.78,11.7.99,1.92,1.09,4.41.42,6.79.54-.75,15.55-21.72,18.73-29.76,0,0,2.55-5.84,3.17-10.63,1.05-8.08-3.53-16.77-10.43-21.12Z"/>
  <polygon points="571.69 416.12 638.52 380.39 709.89 270.19 643.95 309.86 571.69 416.12"/>
  <path d="M603.13,245.58l-81.36,117.79c14.92,17.37,25.21,38.81,28.95,62.41l85.7-124.07,61.32-36.9,21.73-13.08,72.18-116.87-188.51,110.71Z"/>
  <path d="M557.74,439.04h-.1s.14.03.14.03h-66.63c.23,2.24.35,4.51.35,6.82,0,3.77-.33,7.46-.95,11.05l120.92,82.68,77.36-61.89-48.46-82.67-82.63,43.98Z"/>
  <path d="M425.84,465.73c-3.36,0-6.56-.73-9.44-2.03l-22.04,18.12c8.63,6.93,19.58,11.09,31.48,11.1,11.9,0,22.85-4.17,31.48-11.1l-22.04-18.12c-2.89,1.29-6.08,2.02-9.44,2.03Z"/>
  <path d="M482.65,353.36l-56.81-97.75-56.81,97.75c16.53-10.22,35.99-16.13,56.81-16.13,20.82,0,40.28,5.92,56.81,16.13Z"/>
  <path d="M474.37,445.66c0-26.76-21.77-48.53-48.53-48.53s-48.53,21.77-48.53,48.53c0,12.02,4.4,23.03,11.67,31.52l15.44-12.7c-4.42-5.03-7.11-11.61-7.11-18.82,0-15.73,12.8-28.53,28.53-28.53s28.53,12.8,28.53,28.53c0,7.21-2.69,13.79-7.11,18.82l15.44,12.7c7.27-8.49,11.67-19.49,11.67-31.52Z"/>
</svg>